<mxfile host="app.diagrams.net" agent="Mozilla/5.0 (Windows NT 10.0; Win64; x64) AppleWebKit/537.36 (KHTML, like Gecko) Chrome/137.0.0.0 Safari/537.36" version="27.1.4">
  <diagram name="Page-1" id="DXVdvrkbHeeCOPK6BWGy">
    <mxGraphModel dx="872" dy="473" grid="1" gridSize="10" guides="1" tooltips="1" connect="1" arrows="1" fold="1" page="1" pageScale="1" pageWidth="850" pageHeight="1100" math="0" shadow="0">
      <root>
        <mxCell id="0" />
        <mxCell id="1" parent="0" />
        <mxCell id="VTeN2Yo3xI4b-D52_Tr4-20" style="edgeStyle=orthogonalEdgeStyle;rounded=0;orthogonalLoop=1;jettySize=auto;html=1;exitX=0.5;exitY=1;exitDx=0;exitDy=0;entryX=0.5;entryY=0;entryDx=0;entryDy=0;" edge="1" parent="1" source="BYrHlOIUDuxq2Iuk9gzI-17" target="BYrHlOIUDuxq2Iuk9gzI-18">
          <mxGeometry relative="1" as="geometry" />
        </mxCell>
        <mxCell id="BYrHlOIUDuxq2Iuk9gzI-17" value="" style="ellipse;whiteSpace=wrap;html=1;aspect=fixed;" parent="1" vertex="1">
          <mxGeometry x="50" y="10" width="30" height="30" as="geometry" />
        </mxCell>
        <mxCell id="VTeN2Yo3xI4b-D52_Tr4-21" style="edgeStyle=orthogonalEdgeStyle;rounded=0;orthogonalLoop=1;jettySize=auto;html=1;exitX=1;exitY=0.5;exitDx=0;exitDy=0;entryX=0;entryY=0.5;entryDx=0;entryDy=0;" edge="1" parent="1" source="BYrHlOIUDuxq2Iuk9gzI-18" target="BYrHlOIUDuxq2Iuk9gzI-19">
          <mxGeometry relative="1" as="geometry" />
        </mxCell>
        <mxCell id="BYrHlOIUDuxq2Iuk9gzI-18" value="insert ATM&amp;nbsp; card" style="rounded=1;whiteSpace=wrap;html=1;" parent="1" vertex="1">
          <mxGeometry x="10" y="70" width="110" height="30" as="geometry" />
        </mxCell>
        <mxCell id="VTeN2Yo3xI4b-D52_Tr4-22" style="edgeStyle=orthogonalEdgeStyle;rounded=0;orthogonalLoop=1;jettySize=auto;html=1;exitX=1;exitY=0.5;exitDx=0;exitDy=0;entryX=0;entryY=0.5;entryDx=0;entryDy=0;" edge="1" parent="1" source="BYrHlOIUDuxq2Iuk9gzI-19" target="BYrHlOIUDuxq2Iuk9gzI-20">
          <mxGeometry relative="1" as="geometry" />
        </mxCell>
        <mxCell id="VTeN2Yo3xI4b-D52_Tr4-25" style="edgeStyle=orthogonalEdgeStyle;rounded=0;orthogonalLoop=1;jettySize=auto;html=1;exitX=0.5;exitY=1;exitDx=0;exitDy=0;entryX=0.5;entryY=0;entryDx=0;entryDy=0;" edge="1" parent="1" source="BYrHlOIUDuxq2Iuk9gzI-19" target="VTeN2Yo3xI4b-D52_Tr4-1">
          <mxGeometry relative="1" as="geometry" />
        </mxCell>
        <mxCell id="BYrHlOIUDuxq2Iuk9gzI-19" value="" style="rhombus;whiteSpace=wrap;html=1;" parent="1" vertex="1">
          <mxGeometry x="180" y="60" width="50" height="50" as="geometry" />
        </mxCell>
        <mxCell id="VTeN2Yo3xI4b-D52_Tr4-23" style="edgeStyle=orthogonalEdgeStyle;rounded=0;orthogonalLoop=1;jettySize=auto;html=1;exitX=1;exitY=0.5;exitDx=0;exitDy=0;entryX=0;entryY=0.5;entryDx=0;entryDy=0;" edge="1" parent="1" source="BYrHlOIUDuxq2Iuk9gzI-20" target="BYrHlOIUDuxq2Iuk9gzI-21">
          <mxGeometry relative="1" as="geometry" />
        </mxCell>
        <mxCell id="BYrHlOIUDuxq2Iuk9gzI-20" value="prompt for pin" style="rounded=1;whiteSpace=wrap;html=1;" parent="1" vertex="1">
          <mxGeometry x="290" y="70" width="110" height="30" as="geometry" />
        </mxCell>
        <mxCell id="VTeN2Yo3xI4b-D52_Tr4-24" style="edgeStyle=orthogonalEdgeStyle;rounded=0;orthogonalLoop=1;jettySize=auto;html=1;exitX=1;exitY=0.5;exitDx=0;exitDy=0;entryX=0;entryY=0.5;entryDx=0;entryDy=0;" edge="1" parent="1" source="BYrHlOIUDuxq2Iuk9gzI-21" target="BYrHlOIUDuxq2Iuk9gzI-22">
          <mxGeometry relative="1" as="geometry" />
        </mxCell>
        <mxCell id="BYrHlOIUDuxq2Iuk9gzI-21" value="enter pin" style="rounded=1;whiteSpace=wrap;html=1;" parent="1" vertex="1">
          <mxGeometry x="470" y="70" width="110" height="30" as="geometry" />
        </mxCell>
        <mxCell id="VTeN2Yo3xI4b-D52_Tr4-31" style="edgeStyle=orthogonalEdgeStyle;rounded=0;orthogonalLoop=1;jettySize=auto;html=1;exitX=0.5;exitY=1;exitDx=0;exitDy=0;entryX=1;entryY=0.25;entryDx=0;entryDy=0;" edge="1" parent="1" source="BYrHlOIUDuxq2Iuk9gzI-22" target="VTeN2Yo3xI4b-D52_Tr4-2">
          <mxGeometry relative="1" as="geometry" />
        </mxCell>
        <mxCell id="VTeN2Yo3xI4b-D52_Tr4-33" style="edgeStyle=orthogonalEdgeStyle;rounded=0;orthogonalLoop=1;jettySize=auto;html=1;exitX=1;exitY=0.5;exitDx=0;exitDy=0;entryX=1;entryY=0.5;entryDx=0;entryDy=0;" edge="1" parent="1" source="BYrHlOIUDuxq2Iuk9gzI-22" target="VTeN2Yo3xI4b-D52_Tr4-29">
          <mxGeometry relative="1" as="geometry">
            <Array as="points">
              <mxPoint x="770" y="85" />
              <mxPoint x="770" y="255" />
            </Array>
          </mxGeometry>
        </mxCell>
        <mxCell id="BYrHlOIUDuxq2Iuk9gzI-22" value="" style="rhombus;whiteSpace=wrap;html=1;" parent="1" vertex="1">
          <mxGeometry x="670" y="60" width="50" height="50" as="geometry" />
        </mxCell>
        <mxCell id="VTeN2Yo3xI4b-D52_Tr4-1" value="eject card" style="rounded=1;whiteSpace=wrap;html=1;" vertex="1" parent="1">
          <mxGeometry x="150" y="160" width="110" height="30" as="geometry" />
        </mxCell>
        <mxCell id="VTeN2Yo3xI4b-D52_Tr4-2" value="confiscate card" style="rounded=1;whiteSpace=wrap;html=1;" vertex="1" parent="1">
          <mxGeometry x="530" y="160" width="110" height="30" as="geometry" />
        </mxCell>
        <mxCell id="VTeN2Yo3xI4b-D52_Tr4-26" style="edgeStyle=orthogonalEdgeStyle;rounded=0;orthogonalLoop=1;jettySize=auto;html=1;exitX=0.5;exitY=0;exitDx=0;exitDy=0;" edge="1" parent="1" source="VTeN2Yo3xI4b-D52_Tr4-3" target="BYrHlOIUDuxq2Iuk9gzI-20">
          <mxGeometry relative="1" as="geometry" />
        </mxCell>
        <mxCell id="VTeN2Yo3xI4b-D52_Tr4-28" style="edgeStyle=orthogonalEdgeStyle;rounded=0;orthogonalLoop=1;jettySize=auto;html=1;exitX=1;exitY=0.5;exitDx=0;exitDy=0;entryX=0;entryY=0.5;entryDx=0;entryDy=0;" edge="1" parent="1" source="VTeN2Yo3xI4b-D52_Tr4-3" target="VTeN2Yo3xI4b-D52_Tr4-2">
          <mxGeometry relative="1" as="geometry" />
        </mxCell>
        <mxCell id="VTeN2Yo3xI4b-D52_Tr4-3" value="" style="rhombus;whiteSpace=wrap;html=1;" vertex="1" parent="1">
          <mxGeometry x="350" y="150" width="50" height="50" as="geometry" />
        </mxCell>
        <mxCell id="VTeN2Yo3xI4b-D52_Tr4-27" style="edgeStyle=orthogonalEdgeStyle;rounded=0;orthogonalLoop=1;jettySize=auto;html=1;exitX=0.5;exitY=0;exitDx=0;exitDy=0;entryX=0.5;entryY=1;entryDx=0;entryDy=0;" edge="1" parent="1" source="VTeN2Yo3xI4b-D52_Tr4-4" target="VTeN2Yo3xI4b-D52_Tr4-3">
          <mxGeometry relative="1" as="geometry" />
        </mxCell>
        <mxCell id="VTeN2Yo3xI4b-D52_Tr4-36" style="edgeStyle=orthogonalEdgeStyle;rounded=0;orthogonalLoop=1;jettySize=auto;html=1;exitX=0;exitY=0.5;exitDx=0;exitDy=0;entryX=1;entryY=0.5;entryDx=0;entryDy=0;" edge="1" parent="1" source="VTeN2Yo3xI4b-D52_Tr4-4" target="VTeN2Yo3xI4b-D52_Tr4-6">
          <mxGeometry relative="1" as="geometry" />
        </mxCell>
        <mxCell id="VTeN2Yo3xI4b-D52_Tr4-4" value="" style="rhombus;whiteSpace=wrap;html=1;" vertex="1" parent="1">
          <mxGeometry x="350" y="240" width="50" height="50" as="geometry" />
        </mxCell>
        <mxCell id="VTeN2Yo3xI4b-D52_Tr4-35" style="edgeStyle=orthogonalEdgeStyle;rounded=0;orthogonalLoop=1;jettySize=auto;html=1;exitX=0;exitY=0.5;exitDx=0;exitDy=0;entryX=1;entryY=0.5;entryDx=0;entryDy=0;" edge="1" parent="1" source="VTeN2Yo3xI4b-D52_Tr4-5" target="VTeN2Yo3xI4b-D52_Tr4-4">
          <mxGeometry relative="1" as="geometry" />
        </mxCell>
        <mxCell id="VTeN2Yo3xI4b-D52_Tr4-5" value="check pin" style="rounded=1;whiteSpace=wrap;html=1;" vertex="1" parent="1">
          <mxGeometry x="530" y="240" width="110" height="30" as="geometry" />
        </mxCell>
        <mxCell id="VTeN2Yo3xI4b-D52_Tr4-37" style="edgeStyle=orthogonalEdgeStyle;rounded=0;orthogonalLoop=1;jettySize=auto;html=1;exitX=0.25;exitY=1;exitDx=0;exitDy=0;entryX=0.5;entryY=0;entryDx=0;entryDy=0;" edge="1" parent="1" source="VTeN2Yo3xI4b-D52_Tr4-6" target="VTeN2Yo3xI4b-D52_Tr4-7">
          <mxGeometry relative="1" as="geometry" />
        </mxCell>
        <mxCell id="VTeN2Yo3xI4b-D52_Tr4-6" value="prompt the transactipn" style="rounded=1;whiteSpace=wrap;html=1;" vertex="1" parent="1">
          <mxGeometry x="30" y="240" width="180" height="30" as="geometry" />
        </mxCell>
        <mxCell id="VTeN2Yo3xI4b-D52_Tr4-38" style="edgeStyle=orthogonalEdgeStyle;rounded=0;orthogonalLoop=1;jettySize=auto;html=1;exitX=0.5;exitY=1;exitDx=0;exitDy=0;" edge="1" parent="1" source="VTeN2Yo3xI4b-D52_Tr4-7">
          <mxGeometry relative="1" as="geometry">
            <mxPoint x="65" y="480" as="targetPoint" />
          </mxGeometry>
        </mxCell>
        <mxCell id="VTeN2Yo3xI4b-D52_Tr4-39" style="edgeStyle=orthogonalEdgeStyle;rounded=0;orthogonalLoop=1;jettySize=auto;html=1;exitX=1;exitY=0.5;exitDx=0;exitDy=0;entryX=0;entryY=0.5;entryDx=0;entryDy=0;" edge="1" parent="1" source="VTeN2Yo3xI4b-D52_Tr4-7" target="VTeN2Yo3xI4b-D52_Tr4-8">
          <mxGeometry relative="1" as="geometry" />
        </mxCell>
        <mxCell id="VTeN2Yo3xI4b-D52_Tr4-7" value="" style="rhombus;whiteSpace=wrap;html=1;" vertex="1" parent="1">
          <mxGeometry x="40" y="320" width="50" height="50" as="geometry" />
        </mxCell>
        <mxCell id="VTeN2Yo3xI4b-D52_Tr4-40" style="edgeStyle=orthogonalEdgeStyle;rounded=0;orthogonalLoop=1;jettySize=auto;html=1;exitX=1;exitY=0.5;exitDx=0;exitDy=0;entryX=0.5;entryY=1;entryDx=0;entryDy=0;" edge="1" parent="1" source="VTeN2Yo3xI4b-D52_Tr4-8" target="VTeN2Yo3xI4b-D52_Tr4-11">
          <mxGeometry relative="1" as="geometry" />
        </mxCell>
        <mxCell id="VTeN2Yo3xI4b-D52_Tr4-8" value="select acct #" style="rounded=1;whiteSpace=wrap;html=1;" vertex="1" parent="1">
          <mxGeometry x="160" y="330" width="110" height="30" as="geometry" />
        </mxCell>
        <mxCell id="VTeN2Yo3xI4b-D52_Tr4-44" style="edgeStyle=orthogonalEdgeStyle;rounded=0;orthogonalLoop=1;jettySize=auto;html=1;exitX=0.5;exitY=1;exitDx=0;exitDy=0;entryX=1;entryY=0.5;entryDx=0;entryDy=0;" edge="1" parent="1" source="VTeN2Yo3xI4b-D52_Tr4-9" target="VTeN2Yo3xI4b-D52_Tr4-12">
          <mxGeometry relative="1" as="geometry" />
        </mxCell>
        <mxCell id="VTeN2Yo3xI4b-D52_Tr4-48" style="edgeStyle=orthogonalEdgeStyle;rounded=0;orthogonalLoop=1;jettySize=auto;html=1;exitX=1;exitY=0.5;exitDx=0;exitDy=0;entryX=1;entryY=0.5;entryDx=0;entryDy=0;" edge="1" parent="1" source="VTeN2Yo3xI4b-D52_Tr4-9" target="VTeN2Yo3xI4b-D52_Tr4-53">
          <mxGeometry relative="1" as="geometry">
            <mxPoint x="790" y="605" as="targetPoint" />
          </mxGeometry>
        </mxCell>
        <mxCell id="VTeN2Yo3xI4b-D52_Tr4-9" value="" style="rhombus;whiteSpace=wrap;html=1;" vertex="1" parent="1">
          <mxGeometry x="670" y="320" width="50" height="50" as="geometry" />
        </mxCell>
        <mxCell id="VTeN2Yo3xI4b-D52_Tr4-42" style="edgeStyle=orthogonalEdgeStyle;rounded=0;orthogonalLoop=1;jettySize=auto;html=1;exitX=1;exitY=0.5;exitDx=0;exitDy=0;entryX=0;entryY=0.5;entryDx=0;entryDy=0;" edge="1" parent="1" source="VTeN2Yo3xI4b-D52_Tr4-10" target="VTeN2Yo3xI4b-D52_Tr4-13">
          <mxGeometry relative="1" as="geometry" />
        </mxCell>
        <mxCell id="VTeN2Yo3xI4b-D52_Tr4-10" value="" style="rhombus;whiteSpace=wrap;html=1;" vertex="1" parent="1">
          <mxGeometry x="450" y="320" width="50" height="50" as="geometry" />
        </mxCell>
        <mxCell id="VTeN2Yo3xI4b-D52_Tr4-41" style="edgeStyle=orthogonalEdgeStyle;rounded=0;orthogonalLoop=1;jettySize=auto;html=1;exitX=0.5;exitY=0;exitDx=0;exitDy=0;entryX=0;entryY=0.5;entryDx=0;entryDy=0;" edge="1" parent="1" source="VTeN2Yo3xI4b-D52_Tr4-11" target="VTeN2Yo3xI4b-D52_Tr4-10">
          <mxGeometry relative="1" as="geometry" />
        </mxCell>
        <mxCell id="VTeN2Yo3xI4b-D52_Tr4-47" style="edgeStyle=orthogonalEdgeStyle;rounded=0;orthogonalLoop=1;jettySize=auto;html=1;exitX=1;exitY=0.5;exitDx=0;exitDy=0;entryX=0;entryY=0.5;entryDx=0;entryDy=0;" edge="1" parent="1" source="VTeN2Yo3xI4b-D52_Tr4-11" target="VTeN2Yo3xI4b-D52_Tr4-12">
          <mxGeometry relative="1" as="geometry" />
        </mxCell>
        <mxCell id="VTeN2Yo3xI4b-D52_Tr4-11" value="" style="rhombus;whiteSpace=wrap;html=1;direction=south;" vertex="1" parent="1">
          <mxGeometry x="350" y="320" width="50" height="50" as="geometry" />
        </mxCell>
        <mxCell id="VTeN2Yo3xI4b-D52_Tr4-12" value="eject card" style="rounded=1;whiteSpace=wrap;html=1;" vertex="1" parent="1">
          <mxGeometry x="425" y="470" width="120" height="50" as="geometry" />
        </mxCell>
        <mxCell id="VTeN2Yo3xI4b-D52_Tr4-43" style="edgeStyle=orthogonalEdgeStyle;rounded=0;orthogonalLoop=1;jettySize=auto;html=1;exitX=1;exitY=0.5;exitDx=0;exitDy=0;entryX=0;entryY=0.5;entryDx=0;entryDy=0;" edge="1" parent="1" source="VTeN2Yo3xI4b-D52_Tr4-13" target="VTeN2Yo3xI4b-D52_Tr4-9">
          <mxGeometry relative="1" as="geometry" />
        </mxCell>
        <mxCell id="VTeN2Yo3xI4b-D52_Tr4-13" value="" style="rhombus;whiteSpace=wrap;html=1;" vertex="1" parent="1">
          <mxGeometry x="560" y="320" width="50" height="50" as="geometry" />
        </mxCell>
        <mxCell id="VTeN2Yo3xI4b-D52_Tr4-49" style="edgeStyle=orthogonalEdgeStyle;rounded=0;orthogonalLoop=1;jettySize=auto;html=1;exitX=0;exitY=0.5;exitDx=0;exitDy=0;entryX=1;entryY=0.5;entryDx=0;entryDy=0;" edge="1" parent="1" source="VTeN2Yo3xI4b-D52_Tr4-15" target="VTeN2Yo3xI4b-D52_Tr4-19">
          <mxGeometry relative="1" as="geometry" />
        </mxCell>
        <mxCell id="VTeN2Yo3xI4b-D52_Tr4-15" value="print welcome massage" style="rounded=1;whiteSpace=wrap;html=1;" vertex="1" parent="1">
          <mxGeometry x="110" y="580" width="120" height="50" as="geometry" />
        </mxCell>
        <mxCell id="VTeN2Yo3xI4b-D52_Tr4-50" style="edgeStyle=orthogonalEdgeStyle;rounded=0;orthogonalLoop=1;jettySize=auto;html=1;exitX=0;exitY=0.5;exitDx=0;exitDy=0;entryX=1;entryY=0.5;entryDx=0;entryDy=0;" edge="1" parent="1" source="VTeN2Yo3xI4b-D52_Tr4-16" target="VTeN2Yo3xI4b-D52_Tr4-15">
          <mxGeometry relative="1" as="geometry" />
        </mxCell>
        <mxCell id="VTeN2Yo3xI4b-D52_Tr4-16" value="eject card" style="rounded=1;whiteSpace=wrap;html=1;" vertex="1" parent="1">
          <mxGeometry x="290" y="580" width="120" height="50" as="geometry" />
        </mxCell>
        <mxCell id="VTeN2Yo3xI4b-D52_Tr4-51" style="edgeStyle=orthogonalEdgeStyle;rounded=0;orthogonalLoop=1;jettySize=auto;html=1;exitX=0;exitY=0.5;exitDx=0;exitDy=0;entryX=1;entryY=0.5;entryDx=0;entryDy=0;" edge="1" parent="1" source="VTeN2Yo3xI4b-D52_Tr4-17" target="VTeN2Yo3xI4b-D52_Tr4-16">
          <mxGeometry relative="1" as="geometry" />
        </mxCell>
        <mxCell id="VTeN2Yo3xI4b-D52_Tr4-17" value="print receipt" style="rounded=1;whiteSpace=wrap;html=1;" vertex="1" parent="1">
          <mxGeometry x="480" y="580" width="120" height="50" as="geometry" />
        </mxCell>
        <mxCell id="VTeN2Yo3xI4b-D52_Tr4-52" style="edgeStyle=orthogonalEdgeStyle;rounded=0;orthogonalLoop=1;jettySize=auto;html=1;exitX=0;exitY=0.5;exitDx=0;exitDy=0;" edge="1" parent="1" target="VTeN2Yo3xI4b-D52_Tr4-17">
          <mxGeometry relative="1" as="geometry">
            <mxPoint x="670" y="605" as="sourcePoint" />
          </mxGeometry>
        </mxCell>
        <mxCell id="VTeN2Yo3xI4b-D52_Tr4-19" value="" style="ellipse;whiteSpace=wrap;html=1;aspect=fixed;" vertex="1" parent="1">
          <mxGeometry x="20" y="590" width="30" height="30" as="geometry" />
        </mxCell>
        <mxCell id="VTeN2Yo3xI4b-D52_Tr4-30" style="edgeStyle=orthogonalEdgeStyle;rounded=0;orthogonalLoop=1;jettySize=auto;html=1;exitX=0.5;exitY=0;exitDx=0;exitDy=0;entryX=1;entryY=0.75;entryDx=0;entryDy=0;" edge="1" parent="1" source="VTeN2Yo3xI4b-D52_Tr4-29" target="VTeN2Yo3xI4b-D52_Tr4-2">
          <mxGeometry relative="1" as="geometry" />
        </mxCell>
        <mxCell id="VTeN2Yo3xI4b-D52_Tr4-34" style="edgeStyle=orthogonalEdgeStyle;rounded=0;orthogonalLoop=1;jettySize=auto;html=1;exitX=0;exitY=0.5;exitDx=0;exitDy=0;entryX=1;entryY=0.5;entryDx=0;entryDy=0;" edge="1" parent="1" source="VTeN2Yo3xI4b-D52_Tr4-29" target="VTeN2Yo3xI4b-D52_Tr4-5">
          <mxGeometry relative="1" as="geometry" />
        </mxCell>
        <mxCell id="VTeN2Yo3xI4b-D52_Tr4-29" value="" style="rhombus;whiteSpace=wrap;html=1;" vertex="1" parent="1">
          <mxGeometry x="670" y="230" width="50" height="50" as="geometry" />
        </mxCell>
        <mxCell id="VTeN2Yo3xI4b-D52_Tr4-45" style="edgeStyle=orthogonalEdgeStyle;rounded=0;orthogonalLoop=1;jettySize=auto;html=1;exitX=0.5;exitY=1;exitDx=0;exitDy=0;entryX=0.85;entryY=-0.02;entryDx=0;entryDy=0;entryPerimeter=0;" edge="1" parent="1" source="VTeN2Yo3xI4b-D52_Tr4-13" target="VTeN2Yo3xI4b-D52_Tr4-12">
          <mxGeometry relative="1" as="geometry" />
        </mxCell>
        <mxCell id="VTeN2Yo3xI4b-D52_Tr4-46" style="edgeStyle=orthogonalEdgeStyle;rounded=0;orthogonalLoop=1;jettySize=auto;html=1;exitX=0.5;exitY=1;exitDx=0;exitDy=0;entryX=0.583;entryY=0.02;entryDx=0;entryDy=0;entryPerimeter=0;" edge="1" parent="1" source="VTeN2Yo3xI4b-D52_Tr4-10" target="VTeN2Yo3xI4b-D52_Tr4-12">
          <mxGeometry relative="1" as="geometry" />
        </mxCell>
        <mxCell id="VTeN2Yo3xI4b-D52_Tr4-53" value="dispense cash" style="rounded=1;whiteSpace=wrap;html=1;" vertex="1" parent="1">
          <mxGeometry x="660" y="580" width="120" height="50" as="geometry" />
        </mxCell>
        <mxCell id="VTeN2Yo3xI4b-D52_Tr4-55" value="[card recognize]" style="text;html=1;align=center;verticalAlign=middle;resizable=0;points=[];autosize=1;strokeColor=none;fillColor=none;" vertex="1" parent="1">
          <mxGeometry x="210" y="40" width="110" height="30" as="geometry" />
        </mxCell>
        <mxCell id="VTeN2Yo3xI4b-D52_Tr4-56" value="[card not recognize]" style="text;html=1;align=center;verticalAlign=middle;resizable=0;points=[];autosize=1;strokeColor=none;fillColor=none;" vertex="1" parent="1">
          <mxGeometry x="80" y="110" width="130" height="30" as="geometry" />
        </mxCell>
        <mxCell id="VTeN2Yo3xI4b-D52_Tr4-57" value="[&amp;lt;3 tries]" style="text;html=1;align=center;verticalAlign=middle;resizable=0;points=[];autosize=1;strokeColor=none;fillColor=none;" vertex="1" parent="1">
          <mxGeometry x="375" y="108" width="70" height="30" as="geometry" />
        </mxCell>
        <mxCell id="VTeN2Yo3xI4b-D52_Tr4-58" value="[card expire]" style="text;html=1;align=center;verticalAlign=middle;resizable=0;points=[];autosize=1;strokeColor=none;fillColor=none;" vertex="1" parent="1">
          <mxGeometry x="610" y="110" width="90" height="30" as="geometry" />
        </mxCell>
        <mxCell id="VTeN2Yo3xI4b-D52_Tr4-59" value="[&amp;gt;=3 tries]" style="text;html=1;align=center;verticalAlign=middle;resizable=0;points=[];autosize=1;strokeColor=none;fillColor=none;" vertex="1" parent="1">
          <mxGeometry x="390" y="148" width="80" height="30" as="geometry" />
        </mxCell>
        <mxCell id="VTeN2Yo3xI4b-D52_Tr4-60" value="[invalid pin]" style="text;html=1;align=center;verticalAlign=middle;resizable=0;points=[];autosize=1;strokeColor=none;fillColor=none;" vertex="1" parent="1">
          <mxGeometry x="370" y="200" width="80" height="30" as="geometry" />
        </mxCell>
        <mxCell id="VTeN2Yo3xI4b-D52_Tr4-61" value="[valid pin]" style="text;html=1;align=center;verticalAlign=middle;resizable=0;points=[];autosize=1;strokeColor=none;fillColor=none;" vertex="1" parent="1">
          <mxGeometry x="280" y="230" width="70" height="30" as="geometry" />
        </mxCell>
        <mxCell id="VTeN2Yo3xI4b-D52_Tr4-62" value="[card lost]" style="text;html=1;align=center;verticalAlign=middle;resizable=0;points=[];autosize=1;strokeColor=none;fillColor=none;" vertex="1" parent="1">
          <mxGeometry x="610" y="190" width="80" height="30" as="geometry" />
        </mxCell>
        <mxCell id="VTeN2Yo3xI4b-D52_Tr4-65" value="[card not lost]" style="text;html=1;align=center;verticalAlign=middle;resizable=0;points=[];autosize=1;strokeColor=none;fillColor=none;" vertex="1" parent="1">
          <mxGeometry x="590" y="220" width="100" height="30" as="geometry" />
        </mxCell>
        <mxCell id="VTeN2Yo3xI4b-D52_Tr4-66" value="[card not expire]" style="text;html=1;align=center;verticalAlign=middle;resizable=0;points=[];autosize=1;strokeColor=none;fillColor=none;" vertex="1" parent="1">
          <mxGeometry x="760" y="148" width="110" height="30" as="geometry" />
        </mxCell>
        <mxCell id="VTeN2Yo3xI4b-D52_Tr4-67" value="[select withdraw]" style="text;html=1;align=center;verticalAlign=middle;resizable=0;points=[];autosize=1;strokeColor=none;fillColor=none;" vertex="1" parent="1">
          <mxGeometry x="65" y="300" width="110" height="30" as="geometry" />
        </mxCell>
        <mxCell id="VTeN2Yo3xI4b-D52_Tr4-68" value="[select balance and transfer]" style="text;html=1;align=center;verticalAlign=middle;resizable=0;points=[];autosize=1;strokeColor=none;fillColor=none;" vertex="1" parent="1">
          <mxGeometry x="60" y="400" width="170" height="30" as="geometry" />
        </mxCell>
        <mxCell id="VTeN2Yo3xI4b-D52_Tr4-69" value="[valid account]" style="text;html=1;align=center;verticalAlign=middle;resizable=0;points=[];autosize=1;strokeColor=none;fillColor=none;" vertex="1" parent="1">
          <mxGeometry x="375" y="300" width="100" height="30" as="geometry" />
        </mxCell>
        <mxCell id="VTeN2Yo3xI4b-D52_Tr4-74" value="[not exceeded]" style="text;html=1;align=center;verticalAlign=middle;resizable=0;points=[];autosize=1;strokeColor=none;fillColor=none;" vertex="1" parent="1">
          <mxGeometry x="480" y="300" width="100" height="30" as="geometry" />
        </mxCell>
        <mxCell id="VTeN2Yo3xI4b-D52_Tr4-75" value="[sufficient fund]" style="text;html=1;align=center;verticalAlign=middle;resizable=0;points=[];autosize=1;strokeColor=none;fillColor=none;" vertex="1" parent="1">
          <mxGeometry x="590" y="300" width="100" height="30" as="geometry" />
        </mxCell>
        <mxCell id="VTeN2Yo3xI4b-D52_Tr4-78" value="" style="edgeStyle=orthogonalEdgeStyle;rounded=0;orthogonalLoop=1;jettySize=auto;html=1;" edge="1" parent="1" source="VTeN2Yo3xI4b-D52_Tr4-76" target="VTeN2Yo3xI4b-D52_Tr4-12">
          <mxGeometry relative="1" as="geometry" />
        </mxCell>
        <mxCell id="VTeN2Yo3xI4b-D52_Tr4-76" value="[invalid account]" style="text;html=1;align=center;verticalAlign=middle;resizable=0;points=[];autosize=1;strokeColor=none;fillColor=none;" vertex="1" parent="1">
          <mxGeometry x="365" y="370" width="110" height="30" as="geometry" />
        </mxCell>
        <mxCell id="VTeN2Yo3xI4b-D52_Tr4-77" value="[daily amount&lt;div&gt;&amp;nbsp;exceeded]&lt;/div&gt;" style="text;html=1;align=center;verticalAlign=middle;resizable=0;points=[];autosize=1;strokeColor=none;fillColor=none;" vertex="1" parent="1">
          <mxGeometry x="480" y="360" width="90" height="40" as="geometry" />
        </mxCell>
        <mxCell id="VTeN2Yo3xI4b-D52_Tr4-79" value="[insufficient fund]" style="text;html=1;align=center;verticalAlign=middle;resizable=0;points=[];autosize=1;strokeColor=none;fillColor=none;" vertex="1" parent="1">
          <mxGeometry x="580" y="360" width="110" height="30" as="geometry" />
        </mxCell>
        <mxCell id="VTeN2Yo3xI4b-D52_Tr4-80" value="[ATM out of fund]" style="text;html=1;align=center;verticalAlign=middle;resizable=0;points=[];autosize=1;strokeColor=none;fillColor=none;" vertex="1" parent="1">
          <mxGeometry x="690" y="370" width="110" height="30" as="geometry" />
        </mxCell>
        <mxCell id="VTeN2Yo3xI4b-D52_Tr4-81" value="[not out of fund]" style="text;html=1;align=center;verticalAlign=middle;resizable=0;points=[];autosize=1;strokeColor=none;fillColor=none;" vertex="1" parent="1">
          <mxGeometry x="700" y="500" width="110" height="30" as="geometry" />
        </mxCell>
      </root>
    </mxGraphModel>
  </diagram>
</mxfile>
